<?xml version="1.0" encoding="utf-8"?>
<!-- Generator: Adobe Illustrator 24.1.3, SVG Export Plug-In . SVG Version: 6.00 Build 0)  -->
<svg version="1.1" id="Layer_1" xmlns="http://www.w3.org/2000/svg" xmlns:xlink="http://www.w3.org/1999/xlink" x="0px" y="0px"
	 viewBox="0 0 60 60" style="enable-background:new 0 0 60 60;" xml:space="preserve">
<style type="text/css">
	.st0{fill:#5E5E5E;}
</style>
<g>
	<path class="st0" d="M44,11v9h-9v2h6v2h-6v2h6v2h-6v2h20v-2h-6v-2h6v-2h-6v-2h6v-2h-9v-9h10c0.6,0,1-0.4,1-1c0,0,0,0,0,0V5
		c0-0.6-0.4-1-1-1c0,0,0,0,0,0H15V1c0-0.6-0.4-1-1-1c0,0,0,0,0,0H5C4.4,0,4,0.4,4,1c0,0,0,0,0,0v3H1C0.4,4,0,4.4,0,5c0,0,0,0,0,0v5
		c0,0.6,0.4,1,1,1c0,0,0,0,0,0h3v49h2v-1.6l7-7V60h2V11H44z M47,28h-4v-6h4V28z M6.4,22l6.6-6.6v13.2L6.4,22z M12.6,31L6,37.6V24.4
		L12.6,31z M13,12.6l-7,7V11h7V12.6z M13,6v3H6V6H13z M15,6h2.6L15,8.6V6z M45,8.6L42.4,6h5.2L45,8.6z M50,6.4L52.6,9h-5.2L50,6.4z
		 M42.6,9h-5.2L40,6.4L42.6,9z M35,8.6L32.4,6h5.2L35,8.6z M20,6.4L22.6,9h-5.2L20,6.4z M22.4,6h5.2L25,8.6L22.4,6z M30,6.4L32.6,9
		h-5.2L30,6.4z M55,8.6L52.4,6H55V8.6z M6,2h7v2H6V2z M2,6h2v3H2V6z M6,55.6V42.4l6.6,6.6L6,55.6z M6.4,40l6.6-6.6v13.2L6.4,40z"/>
	<path class="st0" d="M58,32v6h-2v-6h-2v6h-8v-6h-2v6h-2v-6h-2v6h-8v-6h-2v6h-2v-6h-2v28h2v-2h2v2h2v-2h8v2h2v-2h2v2h2v-2h8v2h2v-2
		h2v2h2V32H58z M46,52v-8h8v8H46z M32,52v-8h8v8H32z M28,44h2v8h-2V44z M42,44h2v8h-2V44z M56,44h2v8h-2V44z M58,42H28v-2h30V42z
		 M28,56v-2h30v2H28z"/>
</g>
</svg>
