<?xml version="1.0" encoding="utf-8"?>
<!-- Generator: Adobe Illustrator 24.1.3, SVG Export Plug-In . SVG Version: 6.00 Build 0)  -->
<svg version="1.1" id="Layer_1" xmlns="http://www.w3.org/2000/svg" xmlns:xlink="http://www.w3.org/1999/xlink" x="0px" y="0px"
	 viewBox="0 0 64 64" style="enable-background:new 0 0 64 64;" xml:space="preserve">
<style type="text/css">
	.st0{fill:#00D8FF;}
</style>
<g>
	<path class="st0" d="M60.5,1.6h-1.4c-0.3,0-0.6,0.2-0.8,0.5L47.4,21.4v-6.8c0-2.6-2.1-4.8-4.8-4.8H23.2c-2.7,0-4.8,2.1-4.8,4.8
		v29.3c0,2.7,2.2,4.8,4.8,4.8H32L25,61c-0.3,0.4-0.1,1,0.3,1.3c0.1,0.1,0.3,0.1,0.5,0.1h34.7c0.5,0,0.9-0.4,0.9-0.9c0,0,0,0,0,0v-59
		C61.5,2,61,1.6,60.5,1.6C60.5,1.6,60.5,1.6,60.5,1.6z M47.4,43.9v-5.2l5.7-10.1V53H39.4l2.4-4.3h0.8C45.3,48.7,47.4,46.5,47.4,43.9
		C47.4,43.9,47.4,43.9,47.4,43.9L47.4,43.9z M20.3,43.9V14.5c0-1.6,1.3-2.9,2.9-2.9c0,0,0,0,0,0h19.4c1.6,0,2.9,1.3,2.9,2.9
		c0,0,0,0,0,0v29.3c0,1.6-1.3,3-2.9,3c0,0,0,0,0,0H23.2C21.6,46.9,20.3,45.5,20.3,43.9C20.3,43.9,20.3,43.9,20.3,43.9L20.3,43.9z
		 M27.5,60.6l6.7-11.9h5.5L37,53.4c-0.1,0.3-0.1,0.6,0,0.9c0.2,0.3,0.5,0.5,0.8,0.5H54c0.5,0,0.9-0.4,0.9-0.9c0,0,0,0,0-0.1V25.2
		c0-0.4-0.3-0.8-0.7-0.9c-0.4-0.1-0.8,0.1-1,0.4l-5.8,10.2v-9.8L59.6,3.5V15h-1.6c-0.5,0-0.9,0.4-0.9,0.9c0,0.5,0.4,0.9,0.9,0.9h1.5
		v4.5h-1.5c-0.5,0-0.9,0.4-0.9,0.9c0,0.5,0.4,0.9,0.9,0.9h1.5v4.5h-1.5c-0.5,0-0.9,0.4-0.9,0.9c0,0.5,0.4,0.9,0.9,0.9h1.5V34h-1.5
		c-0.5,0-0.9,0.4-0.9,0.9s0.4,0.9,0.9,0.9h1.5v4.5h-1.5c-0.5,0-0.9,0.4-0.9,0.9s0.4,0.9,0.9,0.9c0,0,0,0,0,0h1.5v4.5h-1.5
		c-0.5,0-0.9,0.4-0.9,0.9c0,0.5,0.4,0.9,0.9,0.9h1.5V53h-1.5c-0.5,0-0.9,0.4-0.9,0.9c0,0.5,0.4,0.9,0.9,0.9c0,0,0,0,0,0h1.5v5.8
		L27.5,60.6z"/>
	<path class="st0" d="M41.6,14.5H24.2c-0.5,0-0.9,0.3-0.9,0.8c0,0,0,0.1,0,0.1V21c0,0.5,0.3,0.9,0.8,0.9c0,0,0.1,0,0.1,0h17.4
		c0.5,0,0.9-0.4,0.9-0.9c0,0,0,0,0-0.1v-5.6C42.5,14.9,42.2,14.5,41.6,14.5C41.7,14.5,41.6,14.5,41.6,14.5z M40.7,20.1H25.2v-3.8
		h15.5V20.1z"/>
	<path class="st0" d="M28,24.6h-1c-2,0-3.7,1.7-3.7,3.7v1c0,2,1.7,3.7,3.7,3.7c0,0,0,0,0,0h1c2,0,3.7-1.6,3.7-3.7c0,0,0,0,0,0v-1
		C31.7,26.2,30,24.6,28,24.6C28,24.6,28,24.6,28,24.6z M29.8,29.3c0,1-0.8,1.9-1.9,1.9h-1c-1,0-1.9-0.8-1.9-1.9v-1
		c0-1,0.8-1.8,1.8-1.9c0,0,0,0,0,0h1c1,0,1.8,0.8,1.9,1.8c0,0,0,0,0,0V29.3z"/>
	<path class="st0" d="M38.8,24.6h-1c-2,0-3.7,1.7-3.7,3.7v1c0,2,1.7,3.7,3.7,3.7c0,0,0,0,0,0h1c2,0,3.7-1.6,3.7-3.7c0,0,0,0,0,0v-1
		C42.5,26.2,40.9,24.6,38.8,24.6C38.8,24.6,38.8,24.6,38.8,24.6z M40.7,29.3c0,1-0.8,1.9-1.9,1.9h-1c-1,0-1.8-0.8-1.9-1.9v-1
		c0-1,0.8-1.8,1.8-1.9c0,0,0,0,0,0h1c1,0,1.9,0.8,1.9,1.9c0,0,0,0,0,0V29.3z"/>
	<path class="st0" d="M28,35.6h-1c-2,0-3.7,1.6-3.7,3.7v1c0,2,1.7,3.7,3.7,3.7h1c2,0,3.7-1.7,3.7-3.7v-1C31.7,37.2,30,35.6,28,35.6z
		 M29.8,40.3c0,1-0.8,1.9-1.9,1.9h-1c-1,0-1.9-0.8-1.9-1.9v-1c0-1,0.8-1.8,1.8-1.8c0,0,0,0,0,0h1c1,0,1.8,0.8,1.9,1.8c0,0,0,0,0,0
		V40.3z"/>
	<path class="st0" d="M38.8,35.6h-1c-2,0-3.7,1.6-3.7,3.7v1c0,2,1.7,3.7,3.7,3.7h1c2,0,3.7-1.7,3.7-3.7v-1
		C42.5,37.2,40.9,35.6,38.8,35.6z M40.7,40.3c0,1-0.8,1.8-1.9,1.9h-1c-1,0-1.8-0.8-1.9-1.9v-1c0-1,0.8-1.8,1.8-1.8c0,0,0,0,0,0h1
		c1,0,1.9,0.8,1.9,1.8V40.3z"/>
	<path class="st0" d="M13.6,11.1L13.6,11.1c0-0.2,0-0.3-0.1-0.4l0,0L8.9,2.1C8.6,1.6,8,1.5,7.6,1.8C7.5,1.8,7.4,1.9,7.3,2.1
		l-4.6,8.6l0,0c0,0.1-0.1,0.2-0.1,0.3v42.5l0,0v7.2c0,0.4,0.3,0.7,0.6,0.9c3.2,1,6.7,1,9.9,0c0.4-0.1,0.6-0.5,0.6-0.9v-7.2l0,0
		L13.6,11.1z M11.1,53c-0.2,0.1-0.4,0.1-0.6,0.1c-0.1,0-0.3,0-0.4,0.1l-0.7,0.1c-0.1,0-0.2,0-0.3,0c0,0-0.1,0-0.1,0V12.8
		c0.9-0.1,1.9-0.2,2.8-0.4v40.4l-0.2,0.1L11.1,53z M6.6,53.3L6,53.2c-0.1,0-0.3,0-0.4-0.1c-0.2,0-0.4-0.1-0.6-0.1l-0.4-0.1l-0.2-0.1
		V12.4c0.9,0.2,1.9,0.4,2.8,0.4v40.5c0,0-0.1,0-0.1,0C6.9,53.3,6.7,53.3,6.6,53.3z M8,4.5l3.3,6.1C10.2,10.8,9.1,11,8,11H8
		c-1.1,0-2.2-0.1-3.3-0.4L8,4.5z M11.7,60.1c-2.4,0.7-5,0.7-7.5,0v-5.4h0.1c0.4,0.1,0.7,0.2,1,0.2h0.3C6,55,6.3,55,6.6,55h0.3
		c0.7,0.1,1.5,0.1,2.2,0c0.1,0,0.2,0,0.3,0c0.3,0,0.6-0.1,0.9-0.1h0.3c0.4-0.1,0.7-0.1,1-0.2h0.1L11.7,60.1z"/>
</g>
</svg>
