<?xml version="1.0" encoding="utf-8"?>
<!-- Generator: Adobe Illustrator 24.1.3, SVG Export Plug-In . SVG Version: 6.00 Build 0)  -->
<svg version="1.1" id="Layer_1" xmlns="http://www.w3.org/2000/svg" xmlns:xlink="http://www.w3.org/1999/xlink" x="0px" y="0px"
	 viewBox="0 0 64 64" style="enable-background:new 0 0 64 64;" xml:space="preserve">
<style type="text/css">
	.st0{fill-rule:evenodd;clip-rule:evenodd;fill:#00D8FF;}
</style>
<g>
	<path class="st0" d="M12,18.3c-0.2,0.1-1.4,0.4-5.7,0.1c2.8-3.3,3.9-3.8,4.1-3.9c1-0.4,2.3,0.1,2.7,1.1C13.5,16.7,13,17.9,12,18.3
		 M9.5,12.3c-1.5,0.6-4.1,3.3-7.8,8c6,0.7,9.7,0.8,11.2,0.2c2.3-0.9,3.3-3.5,2.4-5.8C14.3,12.5,11.8,11.4,9.5,12.3"/>
	<path class="st0" d="M58.2,52.7l-4.4,1.8L43.3,29l1.6-0.7l1.1-0.4l1.6-0.7L58.2,52.7z M40.5,17.4c-2.1-5.1-7.7-7.8-12.9-6.6
		l-0.4-1.1c5.8-1.3,12.1,1.7,14.5,7.5l3.5,8.4l-1.1,0.4L40.5,17.4z M25.7,12.3l-6.8,2.1l-0.7-1.7l6.3-3.2L25.7,12.3z M43.8,16.1
		L43.8,16.1c-3-6.8-10.6-10.3-17.5-8.6l-0.1-0.1c0,0,0-0.1,0-0.1c-0.3-0.5-0.9-0.8-1.5-0.5c0,0-0.1,0-0.1,0l-8.4,4.3
		c-0.5,0.3-0.8,0.9-0.5,1.5l1.5,3.7c0.2,0.6,0.9,0.9,1.4,0.7l9-2.8c0,0,0.1,0,0.1,0c0.5-0.2,0.7-0.6,0.7-1.1
		c4.1-0.8,8.3,1.3,9.9,5.3l3.6,8.7l-1.6,0.7l12.3,29.9l8.7-3.6L49,24.1l-1.6,0.7L43.8,16.1z"/>
	<path class="st0" d="M51.1,23.2c-0.6,0.2-0.9,0.9-0.6,1.5l2.7,6.5c0.2,0.6,0.9,0.9,1.5,0.6c0.6-0.2,0.9-0.9,0.6-1.5l-2.7-6.5
		C52.4,23.3,51.8,23,51.1,23.2"/>
</g>
</svg>
