<?xml version="1.0" encoding="utf-8"?>
<!-- Generator: Adobe Illustrator 24.1.3, SVG Export Plug-In . SVG Version: 6.00 Build 0)  -->
<svg version="1.1" id="Layer_1" xmlns="http://www.w3.org/2000/svg" xmlns:xlink="http://www.w3.org/1999/xlink" x="0px" y="0px"
	 viewBox="0 0 64 64" style="enable-background:new 0 0 64 64;" xml:space="preserve">
<style type="text/css">
	.st0{fill:#5E5E5E;}
</style>
<g>
	<path class="st0" d="M60.9,27.7C60.8,27.3,60.4,27,60,27h-4c-0.6,0-1,0.4-1,1v5h-2v-8c0-0.6-0.4-1-1-1h-8v-5c0-0.6-0.4-1-1-1h-7v-2
		h13c0.6,0,1-0.4,1-1v-4c0-0.6-0.4-1-1-1H17c-0.6,0-1,0.4-1,1v4c0,0.6,0.4,1,1,1h13v2h-7c-0.6,0-1,0.4-1,1v5.5L16.7,28H11
		c-0.6,0-1,0.4-1,1v3H8v-8c0-0.6-0.4-1-1-1H3c-0.6,0-1,0.4-1,1v25c0,0.6,0.4,1,1,1h4c0.6,0,1-0.4,1-1v-7h2v3c0,0.6,0.4,1,1,1h5.7
		l5.7,3.8c0.2,0.1,0.4,0.2,0.6,0.2h2v3c0,0.6,0.4,1,1,1h14c0.6,0,1-0.4,1-1v-3h11c0.6,0,1-0.4,1-1v-8h2v5c0,0.6,0.4,1,1,1h4
		c0.4,0,0.8-0.3,0.9-0.7l1-3c0-0.1,0.1-0.2,0.1-0.3V31c0-0.1,0-0.2-0.1-0.3L60.9,27.7z M18,12h30v2H18V12z M32,16h2v2h-2V16z M6,48
		H4V25h2V48z M8,40v-6h2v6H8z M17.6,44.2C17.4,44.1,17.2,44,17,44h-5V30h4v6c0,0.6,0.4,1,1,1s1-0.4,1-1v-6.5l5.6-3.7
		c0.3-0.2,0.4-0.5,0.4-0.8v-5h18v4H32c-0.6,0-1,0.4-1,1s0.4,1,1,1h15v22H23.3L17.6,44.2z M39,52H27v-2h12V52z M51,48h-2V26h2V48z
		 M53,39v-4h2v4H53z M60,42.8L59.3,45H57V29h2.3l0.7,2.2V42.8z"/>
	<path class="st0" d="M27,26h1c0.6,0,1-0.4,1-1s-0.4-1-1-1h-1c-0.6,0-1,0.4-1,1S26.4,26,27,26z"/>
	<path class="st0" d="M17,39c-0.6,0-1,0.4-1,1v1c0,0.6,0.4,1,1,1s1-0.4,1-1v-1C18,39.4,17.6,39,17,39z"/>
	<path class="st0" d="M21,32h23c0.6,0,1-0.4,1-1s-0.4-1-1-1H21c-0.6,0-1,0.4-1,1S20.4,32,21,32z"/>
	<path class="st0" d="M21,36h23c0.6,0,1-0.4,1-1s-0.4-1-1-1H21c-0.6,0-1,0.4-1,1S20.4,36,21,36z"/>
	<path class="st0" d="M21,40h23c0.6,0,1-0.4,1-1s-0.4-1-1-1H21c-0.6,0-1,0.4-1,1S20.4,40,21,40z"/>
	<path class="st0" d="M45,43c0-0.6-0.4-1-1-1H21c-0.6,0-1,0.4-1,1s0.4,1,1,1h23C44.6,44,45,43.6,45,43z"/>
</g>
</svg>
