<?xml version="1.0" encoding="utf-8"?>
<!-- Generator: Adobe Illustrator 24.1.3, SVG Export Plug-In . SVG Version: 6.00 Build 0)  -->
<svg version="1.1" id="Layer_1" xmlns="http://www.w3.org/2000/svg" xmlns:xlink="http://www.w3.org/1999/xlink" x="0px" y="0px"
	 viewBox="0 0 60 60" style="enable-background:new 0 0 60 60;" xml:space="preserve">
<style type="text/css">
	.st0{fill:#5E5E5E;}
</style>
<g>
	<path class="st0" d="M5,54.3V60h2v-5.1C7.4,55,7.8,55,8.3,55c2.1,0,3.2-0.6,4.1-1.1c0.2-0.1,0.4-0.2,0.6-0.3V60h2v-7
		c0.2,0,0.3,0,0.5,0c1.6,0,2.3,0.4,3.1,0.9c1,0.5,2,1.1,4.1,1.1c0.8,0,1.5-0.1,2.2-0.3V60h2v-6.2c0.8-0.4,1.5-0.8,3-0.8
		c1.5,0,2.2,0.4,3,0.8V60h2v-5.3c0.7,0.2,1.5,0.3,2.2,0.3c2.1,0,3.2-0.6,4.1-1.1c0.9-0.5,1.6-0.9,3.1-0.9c0.2,0,0.3,0,0.5,0v7h2
		v-6.5c0.2,0.1,0.4,0.2,0.6,0.3c1,0.5,2,1.1,4.1,1.1c0.4,0,0.8,0,1.2-0.1V60h2v-5.7c0.3-0.1,0.6-0.3,0.9-0.4
		c0.9-0.5,1.6-0.9,3.1-0.9v-2c-2,0-3.1,0.6-4,1.1V44h2c0.5,0,0.9-0.3,1-0.8l1-4c0.1-0.5-0.2-1.1-0.7-1.2c-0.1,0-0.2,0-0.2,0H48v-9
		c0-0.3-0.1-0.5-0.3-0.7l-3-3C44.5,25.1,44.3,25,44,25h-1v-5h-2v5h-2v-3h-2v3H19v2h24.6l2.4,2.4V34H19v2h27v2H17v-7h2v-2h-2v-7h2v-2
		h-2v-7h2v-2h-2V4h2V2h-2V0h-2v2H8V0H6v2H4v2h2v7H4v2h2v7H4v2h2v7H4v2h2v7H2c-0.6,0-1,0.4-1,1c0,0.1,0,0.2,0,0.2l1,4
		C2.1,43.7,2.5,44,3,44h2v8.1C4.1,51.6,3,51,1,51v2c1.6,0,2.3,0.4,3.1,0.9C4.4,54,4.7,54.2,5,54.3z M22.8,53c-1.6,0-2.3-0.4-3.1-0.9
		c-1-0.5-2-1.1-4.1-1.1c-0.2,0-0.3,0-0.5,0v-7h10v8.6C24.4,52.8,23.8,53,22.8,53z M30,51c-1.3,0-2.3,0.2-3,0.6V44h6v7.6
		C32.3,51.2,31.3,51,30,51L30,51z M44.5,51c-2.1,0-3.2,0.6-4.1,1.1c-0.9,0.5-1.6,0.9-3.1,0.9c-1,0-1.7-0.2-2.2-0.4V44h10v7
		C44.8,51,44.7,51,44.5,51L44.5,51z M53,52.9C52.6,53,52.2,53,51.8,53c-1.6,0-2.3-0.4-3.1-0.9c-0.5-0.3-1-0.6-1.6-0.8V44h6V52.9z
		 M15,36.6L9.4,31H15V36.6z M15,27.6L9.4,22H15V27.6z M15,18.6L9.4,13H15V18.6z M15,9.6L9.4,4H15V9.6z M8,5.4l5.6,5.6H8V5.4z
		 M8,14.4l5.6,5.6H8V14.4z M8,23.4l5.6,5.6H8V23.4z M8,32.4l5.6,5.6H8V32.4z M3.3,40h53.4l-0.5,2H3.8L3.3,40z M13,44v7.4
		c-0.6,0.2-1.1,0.5-1.6,0.8C10.5,52.6,9.8,53,8.2,53c-0.4,0-0.8,0-1.3-0.1V44H13z"/>
	<path class="st0" d="M24,23h2v-3.6l3.3,3.3l1.4-1.4L27.4,18H33v5h2v-5h2v-2h-2V9h2V7h-2V5h-2v2h-7V5h-2v2h-2v2h2v7h-2v2h2V23z
		 M33,14.6L27.4,9H33V14.6z M26,10.4l5.6,5.6H26V10.4z"/>
	<path class="st0" d="M49,12H37v2h15v10h-2v2h2v2c0,0.6,0.4,1,1,1s1,0.4,1,1s-0.4,1-1,1s-1-0.4-1-1h-2c0,1.7,1.3,3,3,3
		c1.7,0,3-1.3,3-3c0-1.3-0.8-2.4-2-2.8V26h2v-2h-2V14h2c0.6,0,1-0.4,1-1v-3c0-0.3-0.1-0.5-0.3-0.7l-2-2C54.5,7.1,54.3,7,54,7H39v2
		h10V12z M55,10.4V12h-4V9h2.6L55,10.4z"/>
	<rect x="22" y="29" class="st0" width="3" height="2"/>
	<rect x="28" y="29" class="st0" width="3" height="2"/>
	<rect x="34" y="29" class="st0" width="3" height="2"/>
	<rect x="40" y="29" class="st0" width="3" height="2"/>
</g>
</svg>
