<?xml version="1.0" encoding="utf-8"?>
<!-- Generator: Adobe Illustrator 24.1.3, SVG Export Plug-In . SVG Version: 6.00 Build 0)  -->
<svg version="1.1" id="Layer_1" xmlns="http://www.w3.org/2000/svg" xmlns:xlink="http://www.w3.org/1999/xlink" x="0px" y="0px"
	 viewBox="0 0 64 64" style="enable-background:new 0 0 64 64;" xml:space="preserve">
<style type="text/css">
	.st0{fill-rule:evenodd;clip-rule:evenodd;fill:#00D8FF;}
	.st1{fill:#00D8FF;}
</style>
<g>
	<path class="st0" d="M-113.8,117.3c-0.2,0.1-1.4,0.4-5.7,0.1c2.8-3.3,3.9-3.8,4.1-3.9c1-0.4,2.3,0.1,2.7,1.1
		C-112.2,115.7-112.7,116.9-113.8,117.3 M-116.2,111.3c-1.5,0.6-4.1,3.3-7.8,8c6,0.7,9.7,0.8,11.2,0.2c2.3-0.9,3.3-3.5,2.4-5.8
		C-111.4,111.5-114,110.4-116.2,111.3"/>
	<path class="st0" d="M-67.5,151.7l-4.4,1.8l-10.5-25.6l1.6-0.7l1.1-0.4l1.6-0.7L-67.5,151.7z M-85.2,116.4
		c-2.1-5.1-7.7-7.8-12.9-6.6l-0.4-1.1c5.8-1.3,12.1,1.7,14.5,7.5l3.5,8.4l-1.1,0.4L-85.2,116.4z M-100.1,111.3l-6.8,2.1l-0.7-1.7
		l6.3-3.2L-100.1,111.3z M-82,115.1L-82,115.1c-3-6.8-10.6-10.3-17.5-8.6l-0.1-0.1c0,0,0-0.1,0-0.1c-0.3-0.5-0.9-0.8-1.5-0.5
		c0,0-0.1,0-0.1,0l-8.4,4.3c-0.5,0.3-0.8,0.9-0.5,1.5l1.5,3.7c0.2,0.6,0.9,0.9,1.4,0.7l9-2.8c0,0,0.1,0,0.1,0
		c0.5-0.2,0.7-0.6,0.7-1.1c4.1-0.8,8.3,1.3,9.9,5.3l3.6,8.7l-1.6,0.7l12.3,29.9l8.7-3.6l-12.3-29.9l-1.6,0.7L-82,115.1z"/>
	<path class="st0" d="M-74.6,122.2c-0.6,0.2-0.9,0.9-0.6,1.5l2.7,6.5c0.2,0.6,0.9,0.9,1.5,0.6s0.9-0.9,0.6-1.5l-2.7-6.5
		C-73.3,122.2-74,121.9-74.6,122.2"/>
</g>
<g>
	<path class="st1" d="M22.3,36.5L10.4,48.3c-0.5,0.5-0.5,1.3,0,1.7c0.2,0.2,0.5,0.4,0.8,0.4s0.6-0.1,0.8-0.4L24,38.2
		c0.5-0.5,0.5-1.3,0-1.7C23.6,36,22.8,36,22.3,36.5z"/>
	<path class="st1" d="M13.9,53.5c0.2,0.2,0.5,0.4,0.8,0.4s0.6-0.1,0.8-0.4l11.9-11.9c0.5-0.5,0.5-1.3,0-1.7c-0.5-0.5-1.3-0.5-1.7,0
		L13.9,51.8C13.4,52.3,13.4,53,13.9,53.5z"/>
	<path class="st1" d="M57.3,41.5c-2.6-2.6-6.6-3.6-10.2-2.6l-8.5-8.5l13.1-13.1l3-0.7c0.5-0.1,1-0.4,1.2-0.8l3.8-6.2
		c0.5-0.7,0.4-1.7-0.3-2.3l-2.7-2.7c-0.6-0.6-1.6-0.7-2.3-0.3L48.2,8c-0.4,0.3-0.7,0.7-0.8,1.2l-0.7,3.1L33.6,25.4l-8.5-8.5
		c0.2-0.9,0.4-1.9,0.4-2.8c0-2.7-1.1-5.4-3-7.3c-3-3-7.8-3.9-11.6-2.1c-0.4,0.2-0.6,0.5-0.7,0.9c-0.1,0.4,0.1,0.8,0.4,1.1l3.9,3.9
		c0.5,0.5,0.8,1.2,0.8,2c0,0.8-0.3,1.4-0.8,2c-1.1,1.1-2.9,1.1-3.9,0l-3.9-3.9c-0.3-0.3-0.7-0.4-1.1-0.4c-0.4,0.1-0.7,0.4-0.9,0.7
		c-0.6,1.4-1,2.8-1,4.4c0,2.7,1.1,5.4,3,7.3c2.6,2.7,6.6,3.6,10.1,2.6l4.7,4.7L5.3,45.9c-0.8,0.8-1.3,2-1.3,3.2
		c0,1.2,0.5,2.3,1.3,3.2l6.4,6.4c0.8,0.8,2,1.3,3.2,1.3s2.3-0.5,3.2-1.3l16.2-16.1l4.7,4.7c-0.2,1-0.4,1.9-0.4,2.8
		c0,2.8,1.1,5.4,3,7.3c2,2,4.7,3,7.3,3c1.4,0,2.9-0.3,4.3-0.9c0.4-0.2,0.6-0.5,0.7-0.9c0.1-0.4-0.1-0.8-0.4-1.1l-3.9-3.9
		c-0.5-0.5-0.8-1.2-0.8-2c0-0.7,0.3-1.4,0.8-2c1-1,2.9-1,3.9,0l3.9,3.9c0.3,0.3,0.7,0.4,1.1,0.4c0.4-0.1,0.7-0.3,0.9-0.7
		c0.7-1.3,1-2.8,1-4.4C60.3,46.1,59.3,43.5,57.3,41.5z M48.7,13.7c0.2-0.2,0.3-0.4,0.4-0.6l0.7-3.2l5.6-3.5l2.1,2.1l-3.5,5.6
		L50.8,15c-0.2,0.1-0.4,0.2-0.6,0.4L36.9,28.6l-1.6-1.6L48.7,13.7z M16.3,56.9c-0.8,0.8-2.1,0.8-2.9,0l-6.3-6.3
		c-0.4-0.4-0.6-0.9-0.6-1.4s0.2-1.1,0.6-1.4l16.2-16.1l9.3,9.3L16.3,56.9z M57.8,50.4l-2.5-2.5c-2-1.9-5.5-1.9-7.3,0
		c-1,1-1.6,2.3-1.6,3.7c0,1.4,0.5,2.7,1.6,3.7l2.5,2.5c-2.6,0.5-5.3-0.3-7.2-2.1c-1.5-1.5-2.3-3.5-2.3-5.7c0-1,0.2-1.9,0.5-2.7
		c0.2-0.4,0.1-1-0.3-1.3L18,22.9c-0.2-0.2-0.5-0.4-0.8-0.4c-0.1,0-0.3,0-0.4,0.1c-2.9,1.1-6.2,0.4-8.4-1.9c-1.5-1.4-2.3-3.5-2.3-5.6
		c0-0.5,0.1-1.1,0.1-1.6L8.7,16l0,0c2,2,5.4,2,7.3,0c1-1,1.6-2.3,1.6-3.7S17,9.7,16,8.7l-2.5-2.5c2.6-0.5,5.3,0.2,7.2,2.1
		C22.2,9.9,23,11.9,23,14c0,1-0.2,1.9-0.5,2.7c-0.2,0.5-0.1,1,0.3,1.3l23,23c0.4,0.4,0.8,0.4,1.3,0.3c2.9-1.1,6.2-0.4,8.4,1.8
		c1.5,1.6,2.3,3.5,2.3,5.7C57.9,49.4,57.8,49.9,57.8,50.4z"/>
</g>
</svg>
