<?xml version="1.0" encoding="utf-8"?>
<!-- Generator: Adobe Illustrator 24.1.3, SVG Export Plug-In . SVG Version: 6.00 Build 0)  -->
<svg version="1.1" id="Layer_1" xmlns="http://www.w3.org/2000/svg" xmlns:xlink="http://www.w3.org/1999/xlink" x="0px" y="0px"
	 viewBox="0 0 60 60" style="enable-background:new 0 0 60 60;" xml:space="preserve">
<style type="text/css">
	.st0{fill:#5E5E5E;}
</style>
<path class="st0" d="M49.6,58.1l6.7-28.7l-2.1-0.7v-8.4h1.9v-1.9h-3.9v-1.9h3.9v-1.9H54l-1-3.9h-1.7V6.8h-1.9V3.9h1.9V1.9h-1.9V0
	h-1.9v1.9h-1.9v1.9h1.9v2.9h-8.7V2.9H31V0H29v2.9h-7.7v3.9h-8.7V3.9h1.9V1.9h-1.9V0h-1.9v1.9H8.7v1.9h1.9v2.9H8.7v3.9H7l-1,3.9H3.9
	v1.9h3.9v1.9H3.9v1.9h1.9v8.4l-2.1,0.7l6.7,28.7H0V60h60v-1.9H49.6z M54,30.7l-0.9,3.8L31,28.3v-4.7L54,30.7z M23.2,4.8h13.5v1.9
	H23.2V4.8z M10.6,8.7h38.7v1.9H10.6V8.7z M8.5,12.6h43l0.5,1.9H8L8.5,12.6z M50.3,16.5v1.9h-1.9v-1.9H50.3z M46.5,16.5v1.9h-1.9
	v-1.9H46.5z M42.6,16.5v1.9h-1.9v-1.9H42.6z M38.7,16.5v1.9h-1.9v-1.9H38.7z M34.8,16.5v1.9h-1.9v-1.9H34.8z M31,16.5v1.9H29v-1.9
	H31z M27.1,16.5v1.9h-1.9v-1.9H27.1z M23.2,16.5v1.9h-1.9v-1.9H23.2z M19.4,16.5v1.9h-1.9v-1.9H19.4z M15.5,16.5v1.9h-1.9v-1.9H15.5
	z M11.6,16.5v1.9H9.7v-1.9H11.6z M7.7,20.3h44.5v7.8l-12.7-3.9h10.7v-1.9h-17l-3-0.9L30,21.2l-3.3,1v0h-17v1.9h10.7L7.7,28.1V20.3z
	 M6,30.7l23-7.1v4.7L6.9,34.5L6,30.7z M7.3,36.4L29,30.3v25.8v1.9H12.4L7.3,36.4z M31,58.1v-1.9V30.3l21.7,6.1l-5.1,21.7H31z"/>
</svg>
