<?xml version="1.0" encoding="utf-8"?>
<!-- Generator: Adobe Illustrator 24.1.3, SVG Export Plug-In . SVG Version: 6.00 Build 0)  -->
<svg version="1.1" id="Layer_1" xmlns="http://www.w3.org/2000/svg" xmlns:xlink="http://www.w3.org/1999/xlink" x="0px" y="0px"
	 viewBox="0 0 64 64" style="enable-background:new 0 0 64 64;" xml:space="preserve">
<style type="text/css">
	.st0{fill-rule:evenodd;clip-rule:evenodd;fill:#00D8FF;}
	.st1{fill:#5E5E5E;}
	.st2{fill:none;}
	.st3{fill:#00D8FF;}
</style>
<g>
	<path class="st0" d="M-113.8,117.3c-0.2,0.1-1.4,0.4-5.7,0.1c2.8-3.3,3.9-3.8,4.1-3.9c1-0.4,2.3,0.1,2.7,1.1
		C-112.2,115.7-112.7,116.9-113.8,117.3 M-116.2,111.3c-1.5,0.6-4.1,3.3-7.8,8c6,0.7,9.7,0.8,11.2,0.2c2.3-0.9,3.3-3.5,2.4-5.8
		C-111.4,111.5-114,110.4-116.2,111.3"/>
	<path class="st0" d="M-67.5,151.7l-4.4,1.8l-10.5-25.6l1.6-0.7l1.1-0.4l1.6-0.7L-67.5,151.7z M-85.2,116.4
		c-2.1-5.1-7.7-7.8-12.9-6.6l-0.4-1.1c5.8-1.3,12.1,1.7,14.5,7.5l3.5,8.4l-1.1,0.4L-85.2,116.4z M-100.1,111.3l-6.8,2.1l-0.7-1.7
		l6.3-3.2L-100.1,111.3z M-82,115.1L-82,115.1c-3-6.8-10.6-10.3-17.5-8.6l-0.1-0.1c0,0,0-0.1,0-0.1c-0.3-0.5-0.9-0.8-1.5-0.5
		c0,0-0.1,0-0.1,0l-8.4,4.3c-0.5,0.3-0.8,0.9-0.5,1.5l1.5,3.7c0.2,0.6,0.9,0.9,1.4,0.7l9-2.8c0,0,0.1,0,0.1,0
		c0.5-0.2,0.7-0.6,0.7-1.1c4.1-0.8,8.3,1.3,9.9,5.3l3.6,8.7l-1.6,0.7l12.3,29.9l8.7-3.6l-12.3-29.9l-1.6,0.7L-82,115.1z"/>
	<path class="st0" d="M-74.6,122.2c-0.6,0.2-0.9,0.9-0.6,1.5l2.7,6.5c0.2,0.6,0.9,0.9,1.5,0.6s0.9-0.9,0.6-1.5l-2.7-6.5
		C-73.3,122.2-74,121.9-74.6,122.2"/>
</g>
<g>
	<path class="st1" d="M-28,144.3l-11.9,11.9c-0.5,0.5-0.5,1.3,0,1.7c0.2,0.2,0.5,0.4,0.8,0.4s0.6-0.1,0.8-0.4l11.9-11.9
		c0.5-0.5,0.5-1.3,0-1.7C-26.8,143.8-27.6,143.8-28,144.3z"/>
	<path class="st1" d="M-36.5,161.3c0.2,0.2,0.5,0.4,0.8,0.4s0.6-0.1,0.8-0.4l11.9-11.9c0.5-0.5,0.5-1.3,0-1.7
		c-0.5-0.5-1.3-0.5-1.7,0l-11.8,11.9C-36.9,160.1-36.9,160.8-36.5,161.3z"/>
	<path class="st1" d="M7,149.3c-2.6-2.6-6.6-3.6-10.2-2.6l-8.5-8.5l13.1-13.1l3-0.7c0.5-0.1,1-0.4,1.2-0.8l3.8-6.2
		c0.5-0.7,0.4-1.7-0.3-2.3l-2.7-2.7c-0.6-0.6-1.6-0.7-2.3-0.3l-6.1,3.8c-0.4,0.3-0.7,0.7-0.8,1.2l-0.7,3.1l-13.1,13.1l-8.5-8.5
		c0.2-0.9,0.4-1.9,0.4-2.8c0-2.7-1.1-5.4-3-7.3c-3-3-7.8-3.9-11.6-2.1c-0.4,0.2-0.6,0.5-0.7,0.9c-0.1,0.4,0.1,0.8,0.4,1.1l3.9,3.9
		c0.5,0.5,0.8,1.2,0.8,2s-0.3,1.4-0.8,2c-1.1,1.1-2.9,1.1-3.9,0l-3.9-3.9c-0.3-0.3-0.7-0.4-1.1-0.4c-0.4,0.1-0.7,0.4-0.9,0.7
		c-0.6,1.4-1,2.8-1,4.4c0,2.7,1.1,5.4,3,7.3c2.6,2.7,6.6,3.6,10.1,2.6l4.7,4.7L-45,153.7c-0.8,0.8-1.3,2-1.3,3.2s0.5,2.3,1.3,3.2
		l6.4,6.4c0.8,0.8,2,1.3,3.2,1.3s2.3-0.5,3.2-1.3l16.2-16.1l4.7,4.7c-0.2,1-0.4,1.9-0.4,2.8c0,2.8,1.1,5.4,3,7.3c2,2,4.7,3,7.3,3
		c1.4,0,2.9-0.3,4.3-0.9c0.4-0.2,0.6-0.5,0.7-0.9c0.1-0.4-0.1-0.8-0.4-1.1l-3.9-3.9c-0.5-0.5-0.8-1.2-0.8-2c0-0.7,0.3-1.4,0.8-2
		c1-1,2.9-1,3.9,0l3.9,3.9c0.3,0.3,0.7,0.4,1.1,0.4c0.4-0.1,0.7-0.3,0.9-0.7c0.7-1.3,1-2.8,1-4.4C10,153.9,8.9,151.3,7,149.3z
		 M-1.6,121.6c0.2-0.2,0.3-0.4,0.4-0.6l0.7-3.2l5.6-3.5l2.1,2.1l-3.5,5.6l-3.2,0.7c-0.2,0.1-0.4,0.2-0.6,0.4l-13.4,13.3l-1.6-1.6
		L-1.6,121.6z M-34.1,164.7c-0.8,0.8-2.1,0.8-2.9,0l-6.3-6.3c-0.4-0.4-0.6-0.9-0.6-1.4s0.2-1.1,0.6-1.4l16.2-16.1l9.3,9.3
		L-34.1,164.7z M7.4,158.2l-2.5-2.5c-2-1.9-5.5-1.9-7.3,0c-1,1-1.6,2.3-1.6,3.7s0.5,2.7,1.6,3.7l2.5,2.5c-2.6,0.5-5.3-0.3-7.2-2.1
		c-1.5-1.5-2.3-3.5-2.3-5.7c0-1,0.2-1.9,0.5-2.7c0.2-0.4,0.1-1-0.3-1.3l-23.1-23.1c-0.2-0.2-0.5-0.4-0.8-0.4c-0.1,0-0.3,0-0.4,0.1
		c-2.9,1.1-6.2,0.4-8.4-1.9c-1.5-1.4-2.3-3.5-2.3-5.6c0-0.5,0.1-1.1,0.1-1.6l2.5,2.5l0,0c2,2,5.4,2,7.3,0c1-1,1.6-2.3,1.6-3.7
		c0-1.4-0.5-2.7-1.6-3.6l-2.5-2.5c2.6-0.5,5.3,0.2,7.2,2.1c1.5,1.6,2.3,3.5,2.3,5.7c0,1-0.2,1.9-0.5,2.7c-0.2,0.5-0.1,1,0.3,1.3
		l23,23c0.4,0.4,0.8,0.4,1.3,0.3c2.9-1.1,6.2-0.4,8.4,1.8c1.5,1.6,2.3,3.5,2.3,5.7C7.6,157.2,7.5,157.7,7.4,158.2z"/>
</g>
<g>
	<path class="st2" d="M33.2,26.8v5.1c0,0.7-0.5,1.2-1.2,1.2c-0.7,0-1.2-0.5-1.2-1.2v-5.1c-1.9-0.3-3.5-1.4-4.6-2.8l-3.9,1.8
		c-0.1,0.3-0.2,0.6-0.4,0.8l-0.6,0.6c-0.4,0.4-0.4,1,0,1.4l1.9,1.9c0.4,0.4,1,0.4,1.4,0l0.6-0.6c0.3-0.3,0.8-0.5,1.2-0.5
		c0.2,0,0.5,0.1,0.8,0.2c0.5,0.2,0.9,0.4,1.4,0.6c0.7,0.2,1.2,0.9,1.2,1.6v0.8c0,0.5,0.4,0.9,0.9,0.9h2.7c0.5,0,0.9-0.4,0.9-0.9
		v-0.9c0-0.7,0.5-1.4,1.2-1.6c0.5-0.2,1-0.4,1.4-0.6c0.7-0.3,1.4-0.2,2,0.3l0.6,0.6c0.4,0.4,1,0.4,1.4,0l1.9-1.9
		c0.4-0.4,0.4-1,0-1.4l-0.6-0.6c-0.3-0.3-0.4-0.7-0.5-1l-3.9-1.7C36.8,25.4,35.1,26.5,33.2,26.8z"/>
	<path class="st2" d="M38.9,18c0.2,0.6,0.2,1.2,0.2,1.8c0,0.7-0.1,1.4-0.3,2l3.6,1.5c0,0,0-0.1,0-0.1c0.2-0.7,0.9-1.2,1.6-1.2h0.8
		c0.5,0,0.9-0.4,0.9-0.9v-0.4l-6.7-2.8L38.9,18z"/>
	<path class="st2" d="M19.1,22.1H20c0.7,0,1.4,0.5,1.6,1.2c0,0.1,0.1,0.2,0.1,0.3l3.4-1.6c-0.2-0.7-0.3-1.4-0.3-2.1
		c0-0.5,0.1-1,0.1-1.4l-0.5-0.2L18.2,21v0.1C18.2,21.6,18.6,22.1,19.1,22.1z"/>
	<path class="st2" d="M24.9,15.7l0.9,0.4c1.2-2.1,3.5-3.5,6.2-3.5c2.5,0,4.7,1.3,6,3.2l0.7-0.3c0.3-0.1,0.7-0.2,1,0l3.1,1.3
		c-0.1-0.1-0.2-0.3-0.2-0.5c-0.2-0.5-0.4-1-0.6-1.4c-0.3-0.7-0.2-1.4,0.3-2l0.6-0.6c0.2-0.2,0.3-0.4,0.3-0.7s-0.1-0.5-0.3-0.7
		l-1.9-1.9c-0.4-0.4-1-0.4-1.4,0l-0.6,0.6c-0.5,0.5-1.3,0.6-2,0.3c-0.5-0.2-0.9-0.4-1.4-0.6c-0.7-0.2-1.2-0.9-1.2-1.6V6.9
		c0-0.5-0.4-0.9-0.9-0.9h-2.6c-0.5,0-0.9,0.4-0.9,0.9v0.9c0,0.7-0.5,1.4-1.2,1.6c-0.5,0.2-1,0.4-1.4,0.6c-0.7,0.3-1.4,0.2-2-0.3
		l-0.6-0.6c-0.4-0.4-1-0.4-1.4,0L21.3,11c-0.4,0.4-0.4,1,0,1.4l0.6,0.6c0.5,0.5,0.6,1.3,0.3,2c-0.2,0.5-0.4,0.9-0.6,1.4
		c-0.1,0.3-0.3,0.5-0.4,0.7l2.8-1.3C24.2,15.6,24.6,15.6,24.9,15.7z"/>
	<path class="st2" d="M30.8,25.1v-3.3l-3,1.4C28.5,24.2,29.6,24.8,30.8,25.1z"/>
	<path class="st2" d="M33.2,25.1c1.2-0.3,2.3-1,3.1-1.9l-3.1-1.3V25.1z"/>
	<path class="st2" d="M44,29.8l-1.9,1.9c-1,1-2.8,1-3.8,0l-0.6-0.6c-0.5,0.3-1,0.5-1.6,0.7v0.8c0,1.5-1.2,2.7-2.7,2.7h-2.7
		c-1.5,0-2.7-1.2-2.7-2.7v-0.8c-0.6-0.2-1.1-0.4-1.7-0.7l-0.6,0.6c-1,1-2.8,1-3.8,0l-1.9-1.9c-0.7-0.7-0.9-1.8-0.7-2.7l-4.3,2
		l17,7.3l16.7-7.9l-4.4-1.9C45,27.8,44.8,29,44,29.8z"/>
	<path class="st2" d="M44.9,17.5h-0.5l1.4,0.6C45.6,17.7,45.3,17.5,44.9,17.5z"/>
	<path class="st2" d="M20,17.5h-0.8c-0.5,0-0.9,0.4-0.9,0.8l1.9-0.9C20.1,17.5,20,17.5,20,17.5z"/>
	<path class="st2" d="M26.6,19c0,0.2-0.1,0.5-0.1,0.7c0,0.5,0.1,0.9,0.2,1.3l2.3-1.1L26.6,19z"/>
	<path class="st2" d="M36.4,16.5c-1-1.3-2.6-2.2-4.4-2.2c-1.9,0-3.6,1-4.6,2.5l4.4,1.9L36.4,16.5z"/>
	<path class="st2" d="M37.3,21.1c0.1-0.4,0.2-0.9,0.2-1.3c0-0.4,0-0.7-0.1-1.1L34.7,20L37.3,21.1z"/>
	<path class="st2" d="M19.1,23.9c-1.3,0-2.4-0.9-2.6-2.1l-9.1,4.2l4.8,2.1l7.9-3.7c0-0.1-0.1-0.3-0.1-0.4H19.1z"/>
	<polygon class="st2" points="29.3,37.9 12.3,30.6 7.6,32.8 24.8,40.1 	"/>
	<polygon class="st2" points="35,37.8 39.5,39.8 56.5,32 51.8,29.9 	"/>
	<path class="st2" d="M51.2,37L40,42.2c-0.2,0.1-0.3,0.1-0.5,0.1c-0.2,0-0.3,0-0.5-0.1l-5.6-2.4v16.6l17.7-10.9h0V37z"/>
	<path class="st2" d="M24.9,42.5c-0.2,0-0.3,0-0.5-0.1l-11-4.6V48l17.7,8.6v-17l-5.8,2.7C25.2,42.5,25.1,42.5,24.9,42.5z"/>
	<path class="st2" d="M44.9,23.8H44c0,0.1,0,0.1-0.1,0.2l7.7,3.3l4.7-2.2l-8.9-3.7C47.4,22.7,46.2,23.8,44.9,23.8z"/>
	<path class="st3" d="M59.9,30.9l-5.3-2.3l5.2-2.5c0.4-0.2,0.7-0.6,0.7-1.1c0-0.5-0.3-0.9-0.7-1.1l-12.3-5.1v2.3c0,0.1,0,0.1,0,0.2
		l8.9,3.7l-4.7,2.2L44,24c-0.2,0.5-0.4,1-0.6,1.5L44,26c0.2,0.2,0.4,0.5,0.5,0.7l4.4,1.9l-16.7,7.9l-17-7.3l4.3-2
		c0.1-0.4,0.3-0.8,0.7-1.1l0.6-0.6c-0.2-0.4-0.4-0.8-0.6-1.2L12.2,28l-4.8-2.1l9.1-4.2c0-0.2-0.1-0.4-0.1-0.6v-2L4,24.9
		c-0.4,0.2-0.7,0.6-0.7,1.1c0,0.5,0.3,0.9,0.7,1.1l5.3,2.3l-5.2,2.5c-0.4,0.2-0.7,0.6-0.7,1.1c0,0.5,0.3,0.9,0.7,1.1l6.9,2.9v11.9
		c0,0.5,0.3,0.9,0.7,1.1l20.1,9.8c0,0,0.1,0,0.2,0.1c0,0,0.1,0,0.1,0c0.1,0,0.2,0,0.3,0c0.1,0,0.2,0,0.3,0c0.1,0,0.2-0.1,0.3-0.1
		l20.1-12.4c0.3-0.2,0.6-0.6,0.6-1V35.9L60,33c0.4-0.2,0.7-0.6,0.7-1.1C60.6,31.5,60.4,31,59.9,30.9z M7.6,32.8l4.7-2.2l17,7.3
		l-4.4,2.1L7.6,32.8z M31.2,56.6L13.4,48V37.9l11,4.6c0.1,0.1,0.3,0.1,0.5,0.1c0.2,0,0.3,0,0.5-0.1l5.8-2.7V56.6z M33.5,56.4V39.8
		l5.6,2.4c0.2,0.1,0.3,0.1,0.5,0.1c0.2,0,0.3,0,0.5-0.1L51.2,37v8.4h0L33.5,56.4z M39.5,39.8l-4.5-2l16.7-7.9l4.8,2.1L39.5,39.8z"/>
	<path class="st3" d="M30.8,25.1c0.4,0.1,0.8,0.1,1.2,0.1c0.4,0,0.8,0,1.2-0.1v-3.2l3.1,1.3c0.5-0.6,0.9-1.3,1.1-2.1L34.7,20
		l2.6-1.3c-0.2-0.8-0.5-1.5-1-2.2l-4.6,2.2l-4.4-1.9c-0.4,0.7-0.7,1.4-0.8,2.2l2.4,1l-2.3,1.1c0.2,0.8,0.6,1.5,1.1,2.1l3-1.4V25.1z"
		/>
	<path class="st3" d="M42.2,26.6l0.6,0.6c0.4,0.4,0.4,1,0,1.4l-1.9,1.9c-0.4,0.4-1,0.4-1.4,0l-0.6-0.6c-0.5-0.5-1.3-0.6-2-0.3
		c-0.5,0.2-0.9,0.4-1.4,0.6c-0.7,0.2-1.2,0.9-1.2,1.6v0.9c0,0.5-0.4,0.9-0.9,0.9h-2.7c-0.5,0-0.9-0.4-0.9-0.9v-0.8
		c0-0.7-0.5-1.4-1.2-1.6c-0.5-0.2-1-0.4-1.4-0.6c-0.2-0.1-0.5-0.2-0.8-0.2c-0.5,0-0.9,0.1-1.2,0.5l-0.6,0.6c-0.4,0.4-1,0.4-1.4,0
		l-1.9-1.9c-0.4-0.4-0.4-1,0-1.4l0.6-0.6c0.2-0.2,0.4-0.5,0.4-0.8l-2.9,1.4c-0.3,0.9-0.1,2,0.7,2.7l1.9,1.9c1,1,2.8,1,3.8,0l0.6-0.6
		c0.5,0.3,1.1,0.5,1.7,0.7v0.8c0,1.5,1.2,2.7,2.7,2.7h2.7c1.5,0,2.7-1.2,2.7-2.7v-0.8c0.6-0.2,1.1-0.4,1.6-0.7l0.6,0.6
		c1,1,2.8,1,3.8,0l1.9-1.9c0.8-0.8,1-2.1,0.5-3.1l-2.8-1.2C41.7,26,41.9,26.3,42.2,26.6z"/>
	<path class="st3" d="M19.1,17.5H20c0,0,0.1,0,0.1,0l1-0.5c0.2-0.2,0.4-0.4,0.4-0.7c0.2-0.5,0.4-1,0.6-1.4c0.3-0.7,0.2-1.4-0.3-2
		l-0.6-0.6c-0.4-0.4-0.4-1,0-1.4l1.9-1.9c0.4-0.4,1-0.4,1.4,0l0.6,0.6c0.5,0.5,1.3,0.6,2,0.3c0.5-0.2,0.9-0.4,1.4-0.6
		c0.7-0.2,1.2-0.9,1.2-1.6V6.9c0-0.5,0.4-0.9,0.9-0.9h2.6c0.5,0,0.9,0.4,0.9,0.9v0.8c0,0.7,0.5,1.4,1.2,1.6c0.5,0.2,1,0.4,1.4,0.6
		c0.7,0.3,1.4,0.2,2-0.3l0.6-0.6c0.4-0.4,1-0.4,1.4,0l1.9,1.9c0.2,0.2,0.3,0.4,0.3,0.7s-0.1,0.5-0.3,0.7l-0.6,0.6
		c-0.5,0.5-0.6,1.3-0.3,2c0.2,0.5,0.4,0.9,0.6,1.4c0.1,0.2,0.1,0.3,0.2,0.5l1.7,0.7h0.5c0.4,0,0.7,0.2,0.9,0.6l1.8,0.7v-0.3
		c0-1.5-1.2-2.7-2.7-2.7H44c-0.2-0.6-0.4-1.1-0.7-1.6l0.6-0.6c0.5-0.5,0.8-1.2,0.8-1.9s-0.3-1.4-0.8-1.9L42,7.8c-1-1-2.7-1-3.8,0
		l-0.6,0.6c-0.5-0.3-1.1-0.5-1.7-0.7V7c0-1.5-1.2-2.7-2.7-2.7h-2.7c-1.5,0-2.7,1.2-2.7,2.7v0.8c-0.6,0.2-1.1,0.4-1.6,0.7l-0.6-0.6
		c-1-1-2.8-1-3.8,0L20,9.8c-1,1-1,2.7,0,3.8l0.6,0.6c-0.3,0.5-0.5,1.1-0.7,1.7h-0.8c-1.5,0-2.7,1.2-2.7,2.7v0.7l1.8-0.8
		C18.3,17.9,18.7,17.5,19.1,17.5z"/>
	<path class="st3" d="M21.6,23.2c-0.2-0.7-0.9-1.2-1.6-1.2h-0.9c-0.5,0-0.9-0.4-0.9-0.9V21l-1.7,0.8c0.3,1.2,1.3,2.1,2.6,2.1H20
		c0,0.1,0.1,0.3,0.1,0.4l1.6-0.8C21.7,23.4,21.6,23.3,21.6,23.2z"/>
	<path class="st3" d="M45.8,21.1c0,0.5-0.4,0.9-0.9,0.9h-0.8c-0.7,0-1.4,0.5-1.6,1.2c0,0,0,0.1,0,0.1L44,24c0-0.1,0-0.1,0.1-0.2h0.8
		c1.4,0,2.5-1.1,2.7-2.5l-1.7-0.7V21.1z"/>
	<path class="st3" d="M41.9,24.7c-0.1,0.3-0.2,0.6-0.2,0.9l2.8,1.2c-0.1-0.3-0.3-0.5-0.5-0.7l-0.6-0.6c0.2-0.5,0.4-1,0.6-1.5
		l-1.5-0.7C42.3,23.8,42.1,24.2,41.9,24.7z"/>
	<path class="st3" d="M44,17.5h0.3l-1.7-0.7C43,17.2,43.5,17.5,44,17.5z"/>
	<path class="st3" d="M45.8,18.4v2.2l1.7,0.7c0-0.1,0-0.1,0-0.2v-2.3L45.8,18C45.8,18.2,45.8,18.3,45.8,18.4z"/>
	<path class="st3" d="M16.5,21.8l1.7-0.8v-2.5c0,0,0-0.1,0-0.1l-1.8,0.8v2C16.5,21.4,16.5,21.6,16.5,21.8z"/>
	<path class="st3" d="M22.2,24.7c-0.2-0.4-0.3-0.8-0.5-1.2l-1.6,0.8c0.2,0.4,0.3,0.9,0.6,1.2l-0.6,0.6c-0.3,0.3-0.5,0.7-0.7,1.1
		l2.9-1.4C22.4,25.5,22.4,25.1,22.2,24.7z"/>
	<path class="st3" d="M20.1,17.5c0.4,0,0.7-0.2,1-0.5L20.1,17.5z"/>
	<path class="st3" d="M26.5,19.8c0-0.3,0-0.5,0.1-0.7L25,18.3c-0.1,0.5-0.1,0.9-0.1,1.4c0,0.7,0.1,1.4,0.3,2.1l1.6-0.7
		C26.6,20.7,26.5,20.2,26.5,19.8z"/>
	<path class="st3" d="M37.5,19.8c0,0.4-0.1,0.9-0.2,1.3l1.6,0.7c0.2-0.6,0.3-1.3,0.3-2c0-0.6-0.1-1.2-0.2-1.8l-1.6,0.7
		C37.4,19.1,37.5,19.4,37.5,19.8z"/>
	<path class="st3" d="M32,14.3c1.8,0,3.4,0.9,4.4,2.2l1.6-0.7c-1.3-1.9-3.5-3.2-6-3.2c-2.6,0-4.9,1.4-6.2,3.5l1.6,0.7
		C28.4,15.3,30.1,14.3,32,14.3z"/>
	<path class="st3" d="M33.2,25.1v1.7c1.9-0.3,3.6-1.4,4.7-2.9l-1.6-0.7C35.5,24.2,34.4,24.8,33.2,25.1z"/>
	<path class="st3" d="M27.8,23.2L26.2,24c1.1,1.5,2.7,2.5,4.6,2.8v-1.7C29.6,24.8,28.5,24.2,27.8,23.2z"/>
	<path class="st3" d="M27.8,23.2c-0.5-0.6-0.9-1.3-1.1-2.1l-1.6,0.7c0.2,0.8,0.6,1.5,1.1,2.1L27.8,23.2z"/>
	<path class="st3" d="M27.4,16.8l-1.6-0.7c-0.4,0.7-0.7,1.4-0.9,2.2l1.6,0.7C26.7,18.2,27,17.5,27.4,16.8z"/>
	<path class="st3" d="M32,25.2c-0.4,0-0.8,0-1.2-0.1v1.7c0.4,0.1,0.8,0.1,1.2,0.1c0.4,0,0.8,0,1.2-0.1v-1.7
		C32.8,25.2,32.4,25.2,32,25.2z"/>
	<path class="st3" d="M36.2,23.2l1.6,0.7c0.5-0.6,0.8-1.4,1-2.1l-1.6-0.7C37.1,21.9,36.7,22.6,36.2,23.2z"/>
	<path class="st3" d="M37.4,18.7l1.6-0.7c-0.2-0.8-0.5-1.5-1-2.2l-1.6,0.7C36.9,17.2,37.2,17.9,37.4,18.7z"/>
</g>
</svg>
