<?xml version="1.0" encoding="utf-8"?>
<!-- Generator: Adobe Illustrator 24.1.3, SVG Export Plug-In . SVG Version: 6.00 Build 0)  -->
<svg version="1.1" id="Layer_1" xmlns="http://www.w3.org/2000/svg" xmlns:xlink="http://www.w3.org/1999/xlink" x="0px" y="0px"
	 viewBox="0 0 128 31" style="enable-background:new 0 0 128 31;" xml:space="preserve">
<style type="text/css">
	.st0{fill:#2D2D2E;}
	.st1{fill:#21409A;}
</style>
<g>
	<g>
		<path class="st0" d="M41.03,8.91h-4.38v14.39c0,0.83-0.18,1.44-0.55,1.84c-0.37,0.4-0.85,0.6-1.43,0.6c-0.59,0-1.08-0.2-1.45-0.61
			c-0.37-0.41-0.56-1.02-0.56-1.84V8.91h-4.38c-0.68,0-1.19-0.15-1.53-0.45c-0.33-0.3-0.5-0.7-0.5-1.2c0-0.51,0.17-0.92,0.52-1.22
			c0.35-0.3,0.85-0.45,1.51-0.45h12.75c0.69,0,1.21,0.15,1.55,0.46c0.34,0.31,0.51,0.71,0.51,1.2c0,0.5-0.17,0.89-0.51,1.2
			C42.22,8.76,41.71,8.91,41.03,8.91z"/>
		<path class="st0" d="M58.92,8.69h-9.04v4.86h8.32c0.61,0,1.07,0.14,1.37,0.41c0.3,0.27,0.45,0.64,0.45,1.09
			c0,0.45-0.15,0.82-0.45,1.1c-0.3,0.28-0.76,0.43-1.38,0.43h-8.32v5.63h9.35c0.63,0,1.11,0.15,1.43,0.44
			c0.32,0.29,0.48,0.68,0.48,1.17c0,0.47-0.16,0.85-0.48,1.14c-0.32,0.29-0.79,0.44-1.43,0.44h-10.9c-0.87,0-1.5-0.19-1.88-0.58
			c-0.38-0.39-0.57-1.01-0.57-1.88V8.06c0-0.58,0.09-1.05,0.26-1.41c0.17-0.36,0.44-0.63,0.8-0.8c0.36-0.17,0.83-0.25,1.4-0.25
			h10.59c0.64,0,1.11,0.14,1.43,0.43c0.31,0.28,0.47,0.66,0.47,1.11c0,0.47-0.16,0.84-0.47,1.13C60.04,8.55,59.56,8.69,58.92,8.69z"
			/>
		<path class="st0" d="M71.43,22.42L68.25,9.8v13.67c0,0.76-0.17,1.32-0.51,1.7c-0.34,0.38-0.79,0.57-1.34,0.57
			c-0.54,0-0.98-0.19-1.32-0.56c-0.34-0.37-0.51-0.94-0.51-1.71V7.8c0-0.86,0.23-1.45,0.68-1.75c0.45-0.3,1.06-0.45,1.82-0.45h1.24
			c0.75,0,1.29,0.07,1.63,0.2c0.34,0.14,0.59,0.38,0.75,0.73c0.16,0.35,0.35,0.92,0.55,1.72l2.88,10.85l2.88-10.85
			c0.21-0.79,0.39-1.36,0.55-1.72c0.16-0.35,0.41-0.59,0.75-0.73c0.34-0.14,0.88-0.2,1.63-0.2h1.24c0.77,0,1.37,0.15,1.82,0.45
			c0.45,0.3,0.68,0.88,0.68,1.75v15.67c0,0.76-0.17,1.32-0.51,1.7c-0.34,0.38-0.79,0.57-1.36,0.57c-0.53,0-0.97-0.19-1.31-0.57
			c-0.34-0.38-0.51-0.95-0.51-1.7V9.8L76.8,22.42c-0.21,0.82-0.38,1.42-0.51,1.8c-0.13,0.38-0.37,0.73-0.72,1.05
			c-0.35,0.32-0.84,0.47-1.46,0.47c-0.47,0-0.86-0.1-1.19-0.3c-0.32-0.2-0.58-0.46-0.76-0.78c-0.18-0.32-0.32-0.66-0.43-1.05
			C71.64,23.23,71.54,22.83,71.43,22.42z"/>
		<path class="st0" d="M92.24,7.69v6.94l7.88-8.21c0.38-0.4,0.7-0.69,0.97-0.88c0.27-0.19,0.62-0.28,1.06-0.28
			c0.58,0,1.04,0.17,1.4,0.51c0.36,0.34,0.53,0.75,0.53,1.24c0,0.59-0.3,1.17-0.91,1.74l-4.88,4.62l5.62,8.05
			c0.4,0.56,0.69,1.05,0.89,1.47c0.2,0.42,0.3,0.83,0.3,1.22c0,0.44-0.17,0.82-0.52,1.15c-0.35,0.32-0.82,0.49-1.41,0.49
			c-0.56,0-1.01-0.12-1.36-0.36c-0.35-0.24-0.65-0.56-0.89-0.95c-0.24-0.4-0.46-0.76-0.65-1.08l-4.74-7.29l-3.28,3.15v4.09
			c0,0.83-0.19,1.44-0.57,1.84s-0.86,0.6-1.46,0.6c-0.34,0-0.67-0.09-0.99-0.27c-0.32-0.18-0.56-0.42-0.73-0.73
			c-0.13-0.25-0.2-0.54-0.23-0.88c-0.03-0.33-0.04-0.81-0.04-1.45V7.69c0-0.81,0.18-1.42,0.53-1.82c0.36-0.41,0.84-0.61,1.45-0.61
			c0.6,0,1.09,0.2,1.47,0.6C92.05,6.26,92.24,6.87,92.24,7.69z"/>
		<path class="st0" d="M121.77,23.16l-0.95-2.49h-8.05l-0.95,2.54c-0.37,0.99-0.68,1.66-0.95,2.01c-0.26,0.35-0.69,0.52-1.28,0.52
			c-0.5,0-0.95-0.18-1.34-0.55c-0.39-0.37-0.58-0.79-0.58-1.26c0-0.27,0.04-0.55,0.14-0.84c0.09-0.29,0.24-0.69,0.45-1.2l5.07-12.86
			c0.14-0.37,0.32-0.81,0.52-1.33c0.2-0.52,0.42-0.95,0.65-1.29c0.23-0.34,0.53-0.62,0.9-0.83c0.37-0.21,0.84-0.32,1.38-0.32
			c0.56,0,1.02,0.11,1.4,0.32c0.37,0.21,0.68,0.48,0.91,0.82c0.23,0.33,0.42,0.69,0.58,1.07c0.16,0.38,0.36,0.89,0.6,1.53
			l5.17,12.78c0.41,0.97,0.61,1.68,0.61,2.12c0,0.46-0.19,0.88-0.57,1.26c-0.38,0.38-0.84,0.57-1.38,0.57
			c-0.32,0-0.59-0.06-0.81-0.17c-0.23-0.11-0.41-0.27-0.57-0.46c-0.15-0.19-0.32-0.49-0.49-0.89
			C122.04,23.82,121.89,23.47,121.77,23.16z M113.82,17.66h5.92l-2.99-8.17L113.82,17.66z"/>
	</g>
	<path class="st1" d="M11.12,0C5.01,0,0.05,4.96,0.05,11.07l0,0c0,1.22,0.99,2.21,2.21,2.21s2.21-0.99,2.21-2.21
		s0.99-2.21,2.21-2.21s2.21,0.99,2.21,2.21l0,0v8.86c0,1.22-0.99,2.21-2.21,2.21s-2.21-0.99-2.21-2.21l0,0
		c0-1.22-0.99-2.21-2.21-2.21s-2.21,0.99-2.21,2.21l0,0C0.05,26.04,5.01,31,11.12,31s11.07-4.96,11.07-11.07l0,0
		c0-1.22-0.99-2.21-2.21-2.21s-2.21,0.99-2.21,2.21l0,0c0,1.22-0.99,2.21-2.21,2.21s-2.21-0.99-2.21-2.21v-8.86l0,0
		c0-1.22,0.99-2.21,2.21-2.21s2.21,0.99,2.21,2.21l0,0c0,1.22,0.99,2.21,2.21,2.21s2.21-0.99,2.21-2.21l0,0
		C22.19,4.96,17.24,0,11.12,0z"/>
</g>
</svg>
